<svg width="16" height="15" xmlns="http://www.w3.org/2000/svg"><path d="M16 1.671a6.165 6.165 0 0 1-1.885.561A3.54 3.54 0 0 0 15.558.261a6.269 6.269 0 0 1-2.085.865C12.875.433 12.021 0 11.077 0 9.265 0 7.795 1.596 7.795 3.564c0 .28.029.551.085.812C5.152 4.227 2.733 2.808 1.114.652a3.78 3.78 0 0 0-.445 1.792c0 1.236.58 2.327 1.46 2.966a3.07 3.07 0 0 1-1.486-.446v.045c0 1.727 1.131 3.167 2.633 3.495a3.037 3.037 0 0 1-1.483.061c.418 1.416 1.63 2.446 3.067 2.474-1.124.957-2.539 1.526-4.077 1.526-.265 0-.526-.016-.783-.05 1.453 1.012 3.178 1.602 5.032 1.602 6.038 0 9.34-5.43 9.34-10.14 0-.154-.004-.308-.01-.461A7.02 7.02 0 0 0 16 1.67z" fill="#FFF" fill-rule="evenodd"/></svg>
