<svg width="16" height="17" xmlns="http://www.w3.org/2000/svg"><path d="M12.051 4.956c-1.82 0-2.635 1.046-3.091 1.783v.035h-.023a.274.274 0 0 0 .023-.035v-1.53H5.53c.045 1.013 0 10.8 0 10.8h3.43V9.979c0-.325.022-.644.113-.875.248-.644.813-1.315 1.76-1.315 1.242 0 1.737.992 1.737 2.443v5.779H16V9.817c0-3.319-1.692-4.86-3.949-4.86zM1.941 0C.767 0 0 .808 0 1.867c0 1.036.744 1.867 1.895 1.867h.023c1.196 0 1.94-.831 1.94-1.867C3.836.807 3.114 0 1.94 0zM.202 16.01h3.43V5.21H.203v10.8z" fill="#FFF" fill-rule="evenodd"/></svg>
